<svg xmlns="http://www.w3.org/2000/svg" viewBox="0 0 511.999 511.999" style="enable-background:new 0 0 511.999 511.999" xml:space="preserve"><path style="fill:#57555c" d="M369.674 235.735h78.986v30.831h-78.986z"/><path style="fill:#3c3a41" d="M448.661 266.561h-35.129c-6.233-9.387-5.777-21.892 1.35-30.831h33.781v30.831h-.002z"/><path style="fill:#57555c" d="M442.61 267.354h30.831v75.883H442.61z"/><path style="fill:#3c3a41" d="M442.61 267.354h30.831v36.41H442.61z"/><circle style="fill:#f80" cx="458.817" cy="252.067" r="26.249"/><path style="fill:#57555c" d="M63.332 235.735h78.986v30.831H63.332z"/><path style="fill:#3c3a41" d="M63.336 266.561h35.13c6.233-9.387 5.777-21.892-1.35-30.831h-33.78v30.831z"/><path style="fill:#57555c" d="M38.557 267.354h30.831v75.883H38.557z"/><path style="fill:#3c3a41" d="M38.557 267.354h30.831v36.41H38.557z"/><circle style="fill:#f80" cx="53.179" cy="252.067" r="26.249"/><path style="fill:#57555c" d="M364.815 186.929v-57.05h8.77c15.754 0 28.525 12.771 28.525 28.525 0 15.754-12.771 28.525-28.525 28.525h-8.77zM147.182 186.929v-57.05h-8.77c-15.754 0-28.526 12.771-28.526 28.525 0 15.754 12.771 28.525 28.526 28.525h8.77zM318.232 415.808h30.831v88.349h-30.831z"/><path style="fill:#3c3a41" d="M318.232 415.808h30.831v46.785h-30.831z"/><path style="fill:#57555c" d="M162.935 415.808h30.831v88.349h-30.831z"/><path style="fill:#3c3a41" d="M162.935 415.808h30.831v46.785h-30.831z"/><path style="fill:#00abe7" d="M372.462 200.04H139.535v-35.806c0-64.321 52.142-116.464 116.464-116.464 64.321 0 116.464 52.143 116.464 116.464v35.806z"/><path style="fill:#009ae5" d="M139.539 171.085h232.925v28.953H139.539z"/><circle style="fill:#ff0435" cx="201.179" cy="136.132" r="22.278"/><circle style="fill:#ff0435" cx="310.824" cy="136.132" r="22.278"/><circle style="fill:#ff0435" cx="372.569" cy="34.067" r="26.249"/><circle style="fill:#ff0435" cx="139.424" cy="34.067" r="26.249"/><path style="fill:#57555c" d="M169.925 200.04h172.131v35.695H169.925z"/><path style="fill:#3c3a41" d="M169.925 200.04h172.131v17.847H169.925z"/><path style="fill:#00abe7" d="M390.932 235.731H121.065v178.218c0 11.021 8.934 19.955 19.955 19.955h229.958c11.021 0 19.955-8.934 19.955-19.955V235.731h-.001z"/><path style="fill:#009ae5" d="M121.065 413.95c0 11.021 8.934 19.955 19.955 19.955h229.958c11.021 0 19.955-8.934 19.955-19.955v-15.737H121.065v15.737z"/><path style="fill:#e0e0e3" d="M330.938 318.614H181.06c-12.696 0-22.988-10.293-22.988-22.988 0-12.696 10.293-22.988 22.988-22.988h149.877c12.696 0 22.988 10.293 22.988 22.988.001 12.695-10.292 22.988-22.987 22.988z"/><path style="fill:#d2d1d3" d="M158.806 301.3c2.53 9.947 11.519 17.315 22.254 17.315h149.877c10.735 0 19.724-7.368 22.254-17.315H158.806z"/><circle style="fill:#f80" cx="178.347" cy="361.722" r="16.956"/><circle style="fill:#ff0435" cx="240.406" cy="361.722" r="16.956"/><path d="M481.271 343.337c0-.031.005-.063.005-.094v-65.548a34.663 34.663 0 0 0 1.645-1.529c13.288-13.289 13.288-34.912 0-48.202-6.438-6.437-14.998-9.983-24.101-9.983-9.07 0-17.599 3.521-24.026 9.912h-43.862l-.021.001h-41.006v-20.017h22.559a7.836 7.836 0 0 0 7.837-7.837v-5.893c7.162-1.327 13.749-4.767 19.004-10.022 6.864-6.863 10.646-15.998 10.646-25.719 0-20.051-16.312-36.365-36.364-36.365h-.664c-6.478-17.893-16.953-33.886-30.341-46.9l11.448-11.448c.209-.209.401-.429.582-.655 5.342 3.325 11.512 5.113 17.96 5.113 9.104 0 17.663-3.546 24.099-9.983 6.438-6.437 9.984-14.997 9.984-24.1s-3.547-17.663-9.983-24.101c-13.29-13.288-34.911-13.288-48.202 0-6.437 6.438-9.983 14.998-9.983 24.101 0 6.448 1.787 12.62 5.113 17.96a7.768 7.768 0 0 0-.655.582l-12.299 12.299c-20.8-15.671-46.656-24.974-74.647-24.974-8.867 0-17.723.939-26.32 2.794a7.834 7.834 0 0 0-6.008 9.312c.912 4.232 5.085 6.924 9.312 6.008a109.4 109.4 0 0 1 23.016-2.441c59.896 0 108.627 48.73 108.627 108.627v27.969H147.372v-27.969c0-40.174 22.031-76.909 57.495-95.866a7.837 7.837 0 0 0-7.39-13.822 125.116 125.116 0 0 0-16.164 10.324l-12.26-12.26a7.948 7.948 0 0 0-.655-.582c3.325-5.342 5.113-11.512 5.113-17.96 0-9.104-3.546-17.663-9.983-24.101-13.29-13.288-34.911-13.288-48.202 0-6.437 6.438-9.983 14.998-9.983 24.101s3.546 17.663 9.983 24.099c6.437 6.438 14.997 9.984 24.1 9.984 6.448 0 12.62-1.787 17.96-5.113.181.226.373.446.582.655l11.391 11.391a124.091 124.091 0 0 0-30.298 46.957h-.65c-20.05 0-36.364 16.312-36.364 36.365 0 9.722 3.781 18.856 10.645 25.718 5.255 5.256 11.843 8.696 19.005 10.023v5.893a7.836 7.836 0 0 0 7.837 7.837h22.559v20.017h-41.008l-.018-.001H77.205c-6.428-6.392-14.956-9.912-24.026-9.912-9.104 0-17.663 3.546-24.101 9.983-13.288 13.289-13.288 34.912.001 48.203a34.14 34.14 0 0 0 1.644 1.528v65.548c0 .032.004.063.005.094-11.481 7.577-19.076 20.585-19.076 35.34 0 4.329 3.508 7.837 7.837 7.837s7.837-3.508 7.837-7.837c0-14.693 11.953-26.646 26.647-26.646 14.693 0 26.646 11.953 26.646 26.646a7.836 7.836 0 0 0 7.837 7.837 7.836 7.836 0 0 0 7.837-7.837c0-14.754-7.595-27.763-19.075-35.34 0-.032.005-.063.005-.095v-67.021l.059-.055a35.162 35.162 0 0 0 1.632-1.764h34.317V413.95c0 15.324 12.468 27.792 27.792 27.792h14.081v54.583h-26.566a7.836 7.836 0 0 0-7.837 7.837 7.836 7.836 0 0 0 7.837 7.837h81.736a7.836 7.836 0 0 0 7.837-7.837 7.836 7.836 0 0 0-7.837-7.837H201.6v-54.583h108.797v54.618a7.834 7.834 0 0 0-7.136 7.801 7.836 7.836 0 0 0 7.837 7.837H373.844a7.836 7.836 0 0 0 7.837-7.837 7.836 7.836 0 0 0-7.837-7.837h-16.948v-54.583h14.081c15.324 0 27.792-12.468 27.792-27.792v-79.132a7.836 7.836 0 0 0-7.837-7.837 7.836 7.836 0 0 0-7.837 7.837v79.132c0 6.682-5.436 12.118-12.118 12.118H349.14c-.027 0-.053-.004-.08-.004-.027 0-.053.004-.08.004h-30.663c-.027 0-.053-.004-.08-.004-.027 0-.053.004-.08.004H193.844c-.027 0-.053-.004-.08-.004s-.053.004-.08.004h-30.665c-.027 0-.053-.004-.08-.004-.027 0-.053.004-.08.004H141.02c-6.682 0-12.118-5.436-12.118-12.118V243.568h254.194v59.815a7.836 7.836 0 0 0 7.837 7.837 7.836 7.836 0 0 0 7.837-7.837v-28.98h34.317a35.603 35.603 0 0 0 1.632 1.764l.059.055v67.021c0 .032.004.063.005.095-11.481 7.577-19.075 20.584-19.075 35.34a7.836 7.836 0 0 0 7.837 7.837 7.836 7.836 0 0 0 7.837-7.837c0-14.693 11.953-26.646 26.646-26.646 14.694 0 26.647 11.953 26.647 26.646a7.836 7.836 0 0 0 7.837 7.837 7.836 7.836 0 0 0 7.837-7.837c-.003-14.756-7.598-27.765-19.078-35.341zM359.554 21.049c3.589-3.589 8.302-5.383 13.017-5.383s9.427 1.795 13.017 5.383c3.478 3.476 5.393 8.1 5.393 13.018s-1.915 9.54-5.393 13.018a18.29 18.29 0 0 1-13.017 5.392 18.29 18.29 0 0 1-13.018-5.393c-3.477-3.476-5.392-8.099-5.392-13.017s1.915-9.542 5.393-13.018zm34.721 137.356c0 5.535-2.15 10.732-6.054 14.636a20.556 20.556 0 0 1-7.921 4.924v-13.73c0-8.962-.962-17.703-2.773-26.134 9.527 1.847 16.748 10.244 16.748 20.304zM139.427 52.476a18.29 18.29 0 0 1-13.018-5.393c-3.476-3.476-5.392-8.099-5.392-13.017s1.915-9.541 5.393-13.018a18.35 18.35 0 0 1 13.017-5.383c4.715 0 9.427 1.795 13.017 5.383 3.478 3.476 5.393 8.1 5.393 13.018s-1.915 9.54-5.393 13.018a18.289 18.289 0 0 1-13.017 5.392zM123.776 173.04c-3.903-3.903-6.053-9.1-6.053-14.635 0-10.06 7.219-18.457 16.748-20.303a124.678 124.678 0 0 0-2.773 26.134v13.73a20.555 20.555 0 0 1-7.922-4.926zm62.15 323.285h-15.151v-54.583h15.151v54.583zm155.297 0h-15.151v-54.583h15.151v54.583zM40.162 239.047c3.476-3.478 8.1-5.393 13.018-5.393s9.54 1.915 13.018 5.393a18.29 18.29 0 0 1 5.392 13.017c0 4.917-1.915 9.541-5.393 13.018-7.178 7.18-18.859 7.177-26.034.001-7.179-7.179-7.179-18.859-.001-26.036zm21.386 96.359H46.397V285.45c2.237.45 4.509.681 6.783.681 2.813 0 5.625-.35 8.369-1.041v50.316zm25.067-76.677c.428-2.171.648-4.401.648-6.665 0-2.906-.365-5.754-1.066-8.497h27.031v15.162H86.615zm91.153-30.835v-20.017H334.23v20.017H177.768zm281.05 5.76c4.917 0 9.541 1.915 13.018 5.393 7.178 7.177 7.178 18.857.001 26.034-7.179 7.179-18.859 7.179-26.035 0a18.284 18.284 0 0 1-5.393-13.018 18.29 18.29 0 0 1 5.393-13.018 18.292 18.292 0 0 1 13.016-5.391zm-60.049 25.075v-15.162H425.8a34.458 34.458 0 0 0-.418 15.162h-26.613zm60.049 27.403c2.274 0 4.547-.231 6.783-.681v49.956H450.45v-50.314a34.41 34.41 0 0 0 8.368 1.039z"/><path d="M171.061 136.127c0 16.606 13.51 30.115 30.115 30.115s30.115-13.51 30.115-30.115-13.51-30.115-30.115-30.115-30.115 13.509-30.115 30.115zm44.557 0c0 7.962-6.479 14.441-14.441 14.441-7.962 0-14.441-6.479-14.441-14.441 0-7.962 6.479-14.441 14.441-14.441 7.962 0 14.441 6.479 14.441 14.441zM340.936 136.127c0-16.606-13.51-30.115-30.115-30.115s-30.115 13.51-30.115 30.115 13.51 30.115 30.115 30.115 30.115-13.509 30.115-30.115zm-44.556 0c0-7.962 6.479-14.441 14.441-14.441 7.962 0 14.441 6.479 14.441 14.441s-6.479 14.441-14.441 14.441c-7.963 0-14.441-6.479-14.441-14.441zM361.763 295.625c0-16.998-13.828-30.825-30.825-30.825H181.06c-16.998 0-30.825 13.828-30.825 30.825 0 16.998 13.828 30.827 30.825 30.827h19.1a7.836 7.836 0 0 0 7.837-7.837 7.836 7.836 0 0 0-7.837-7.837h-19.1c-8.354 0-15.151-6.797-15.151-15.153 0-8.354 6.797-15.151 15.151-15.151h149.879c8.354 0 15.151 6.797 15.151 15.151 0 8.355-6.797 15.153-15.151 15.153h-98.516a7.836 7.836 0 0 0-7.837 7.837 7.836 7.836 0 0 0 7.837 7.837h98.515c16.997 0 30.825-13.83 30.825-30.827zM409.166 496.325h-10.108a7.836 7.836 0 0 0-7.837 7.837 7.836 7.836 0 0 0 7.837 7.837h10.108a7.836 7.836 0 0 0 7.837-7.837 7.836 7.836 0 0 0-7.837-7.837zM342.471 378.866a7.836 7.836 0 0 0 7.837-7.837v-4.21h4.209a7.836 7.836 0 0 0 7.837-7.837 7.836 7.836 0 0 0-7.837-7.837h-4.209v-4.21a7.836 7.836 0 0 0-7.837-7.837 7.836 7.836 0 0 0-7.837 7.837v4.21h-4.21a7.836 7.836 0 0 0-7.837 7.837 7.836 7.836 0 0 0 7.837 7.837h4.21v4.21a7.838 7.838 0 0 0 7.837 7.837zM178.351 336.928c-13.671 0-24.793 11.122-24.793 24.793s11.122 24.793 24.793 24.793 24.793-11.122 24.793-24.793-11.123-24.793-24.793-24.793zm0 33.911c-5.028 0-9.119-4.091-9.119-9.119s4.091-9.119 9.119-9.119 9.119 4.091 9.119 9.119-4.092 9.119-9.119 9.119zM215.618 361.72c0 13.671 11.122 24.793 24.793 24.793s24.793-11.122 24.793-24.793-11.122-24.793-24.793-24.793-24.793 11.122-24.793 24.793zm33.911 0c0 5.028-4.091 9.119-9.119 9.119s-9.119-4.091-9.119-9.119 4.091-9.119 9.119-9.119 9.119 4.092 9.119 9.119z"/></svg>